:SAMPLES-PER-SECOND 30
:FULLY-SPECIFIED
:DEGREES
332
root  -34.7933 26.5184 30.4941 -5.3219 -81.2261 30.3722
RightUpLeg  -37.7389 10.9391 -35.6774
RightLeg  54.8423 -4.06222 -5.0888
RightFoot  -21.8538 0.739948 4.20911
RightToes  -57.6584 -0.372573 -0.391736
Spine  22.1429 1.0433 5.92042
Spine1  35.2835 2.71686 10.4083
HEad  7.64536 -4.99617 0.798278
LeftShoulder1  0 -2.42657e-020 -4.95415e-022
LeftArm  -1.05539 -38.5633 -106.086
LeftForeArm  43.4946 -26.325 -4.98262
LeftHand  0.104305 -12.2169 -1.34533
RightShoulder  0 2.42657e-020 1.07489e-018
RightArm  -96.2421 47.3303 46.3058
RightForeArm  39.6909 6.04208 1.06292
RightHand  -1.35164 17.4991 -8.3985
LeftUpLeg  -68.9227 3.31845 11.6748
LeftLeg  68.2356 -6.53288 -13.4615
LeftFoot  -13.7303 0.177349 1.47296
LeftToes  -40.6238 1.18758e-006 1.19596e-007
333
root  -35.7251 27.0588 32.2359 -12.9672 -83.344 36.551
RightUpLeg  -37.1968 12.7227 -35.1834
RightLeg  57.6773 -8.60593 -11.6993
RightFoot  -10.8307 0.419108 4.79673
RightToes  -53.0847 -0.330507 -0.376513
Spine  21.3311 1.1652 5.85817
Spine1  33.5068 1.45043 12.7994
HEad  8.42979 -7.2424 -0.307211
LeftShoulder1  0 -2.42657e-020 -4.95415e-022
LeftArm  -1.06831 -36.6995 -105.815
LeftForeArm  47.5931 -25.3837 -4.7706
LeftHand  0.16374 -13.8462 -1.71925
RightShoulder  0 2.42657e-020 1.07489e-018
RightArm  -100.387 40.3767 50.545
RightForeArm  27.8386 8.67243 1.5416
RightHand  -0.725019 16.8124 -4.53493
LeftUpLeg  -64.7279 3.09164 8.72132
LeftLeg  68.5181 -5.89354 -12.3434
LeftFoot  -16.6849 0.307895 2.09941
LeftToes  -37.3504 1.18758e-006 1.19596e-007
334
root  -36.7741 27.8961 33.7882 -20.3775 -83.8635 42.8046
RightUpLeg  -38.0633 11.9322 -32.3721
RightLeg  62.9326 -8.69738 -14.3478
RightFoot  -7.65575 0.250199 4.11601
RightToes  -26.6346 -0.121446 -0.227909
Spine  19.9951 0.159125 5.81622
Spine1  31.7619 -0.806239 12.7038
HEad  9.63825 -4.93728 -1.31251
LeftShoulder1  0 -2.42657e-020 -4.95415e-022
LeftArm  -4.16553 -33.2415 -101.503
LeftForeArm  47.809 -27.0465 -5.13604
LeftHand  0.116915 -12.9937 -1.39731
RightShoulder  0 2.42657e-020 1.07489e-018
RightArm  -90.7086 34.4548 59.5258
RightForeArm  19.3266 16.9542 3.0782
RightHand  0.0806481 20.0771 0.825852
LeftUpLeg  -59.6552 0.858903 5.97332
LeftLeg  65.9193 -5.34927 -10.056
LeftFoot  -17.971 0.338956 2.14335
LeftToes  -33.088 1.18758e-006 1.19596e-007
335
root  -38.0295 28.8518 35.2231 -27.9771 -83.6671 48.2334
RightUpLeg  -37.3589 7.64589 -27.4822
RightLeg  64.8302 -2.27098 -4.2315
RightFoot  -11.2589 0.185319 2.2576
RightToes  -35.5778 -0.184155 -0.288803
Spine  18.9202 -1.48026 5.45853
Spine1  30.4474 -4.44577 12.3368
HEad  11.3171 -2.04494 -2.46328
LeftShoulder1  0 -2.42657e-020 -4.95415e-022
LeftArm  -8.38605 -29.0527 -96.1623
LeftForeArm  45.9888 -27.9822 -5.34979
LeftHand  0.079748 -15.7542 -0.946756
RightShoulder  0 2.42657e-020 1.07489e-018
RightArm  -76.93 26.1981 67.5023
RightForeArm  8.51786 27.7986 5.32458
RightHand  0.2355 19.0122 1.77691
LeftUpLeg  -52.5574 -2.24483 3.21241
LeftLeg  61.5643 -4.59173 -7.27887
LeftFoot  -18.3062 0.287004 1.7811
LeftToes  -28.9037 1.18758e-006 1.19596e-007
336
root  -39.291 29.9551 36.5056 -36.2245 -85.2164 55.0781
RightUpLeg  -37.752 1.75807 -19.9393
RightLeg  63.9208 -0.214936 -0.488735
RightFoot  -12.8728 0.0575078 0.887363
RightToes  -43.7317 -0.248959 -0.335217
Spine  17.7495 -2.71348 5.22679
Spine1  29.321 -7.21807 11.7862
HEad  12.3181 2.20967 -5.0088
LeftShoulder1  0 -2.42657e-020 -4.95415e-022
LeftArm  -12.7884 -23.7435 -91.0097
LeftForeArm  41.9835 -29.5496 -5.71746
LeftHand  0.15039 -14.9924 -1.51351
RightShoulder  0 2.42657e-020 1.07489e-018
RightArm  -69.6507 19.1381 73.3729
RightForeArm  9.44444 38.6877 8.11528
RightHand  -0.188237 19.3105 -0.736632
LeftUpLeg  -45.5712 -3.07023 1.43234
LeftLeg  56.0634 -4.02929 -5.21905
LeftFoot  -17.3493 0.216852 1.42126
LeftToes  -25.7281 1.18758e-006 1.19596e-007
337
root  -40.4577 31.0605 37.6573 -62.3226 -87.6607 80.7934
RightUpLeg  -39.0423 -5.28001 -10.621
RightLeg  59.9705 -0.388095 -0.669303
RightFoot  -15.0352 0.0223283 0.546773
RightToes  -43.9909 -0.251123 -0.336538
Spine  16.391 -3.7507 4.99305
Spine1  28.3017 -9.03316 9.96915
HEad  13.5693 8.96036 -7.87392
LeftShoulder1  0 -2.42657e-020 -4.95415e-022
LeftArm  -19.374 -17.0488 -86.6141
LeftForeArm  39.5744 -31.2904 -6.13632
LeftHand  0.206306 -14.4429 -1.99896
RightShoulder  0 2.42657e-020 1.07489e-018
RightArm  -61.658 13.2129 77.58
RightForeArm  19.1087 48.0965 11.3546
RightHand  -1.15085 20.2237 -6.07837
LeftUpLeg  -40.3479 -2.4827 0.756841
LeftLeg  51.4041 -4.09079 -4.494
LeftFoot  -14.3668 0.154609 1.22666
LeftToes  -25.5179 1.18758e-006 1.19596e-007
338
root  -41.546 32.0387 38.8564 -125.766 -86.475 143.838
RightUpLeg  -40.2528 -12.0397 -2.39412
RightLeg  54.2201 -0.654065 -0.855241
RightFoot  -15.3218 0.00276578 0.398129
RightToes  -45.7533 -0.265997 -0.345262
Spine  15.5842 -4.85461 4.33652
Spine1  28.3528 -10.4892 6.52624
HEad  13.5043 16.0812 -11.0325
LeftShoulder1  0 -2.42657e-020 -4.95415e-022
LeftArm  -26.3661 -10.1263 -82.9224
LeftForeArm  36.5726 -33.3409 -6.65035
LeftHand  0.192177 -13.4346 -2.00253
RightShoulder  0 2.42657e-020 1.07489e-018
RightArm  -52.9473 9.65644 80.3079
RightForeArm  34.1485 58.4961 16.7897
RightHand  -2.81232 21.7624 -14.1882
LeftUpLeg  -37.7756 -2.32326 -0.790212
LeftLeg  50.8802 -5.05676 -5.44465
LeftFoot  -7.71287 0.0608954 0.903339
LeftToes  -28.6111 1.18758e-006 1.19596e-007
339
root  -42.7697 32.7744 39.8646 -145.493 -79.8361 163.06
RightUpLeg  -41.0732 -11.3824 2.3719
RightLeg  48.6133 2.02032 1.97209
RightFoot  -13.6046 -0.123107 -0.654509
RightToes  -49.2347 -0.29613 -0.361131
Spine  15.3643 -4.80766 2.45838
Spine1  28.9785 -9.05075 0.515794
HEad  11.5997 22.8792 -13.1489
LeftShoulder1  0 -2.42657e-020 -4.95415e-022
LeftArm  -31.6434 -3.02639 -78.3387
LeftForeArm  31.9008 -35.176 -7.13294
LeftHand  0.175027 -12.4683 -1.97318
RightShoulder  0 2.42657e-020 1.07489e-018
RightArm  -43.8737 8.66396 83.3572
RightForeArm  51.0858 66.5066 24.0657
RightHand  -3.68913 21.7948 -18.6281
LeftUpLeg  -37.294 -1.06293 -1.90202
LeftLeg  54.9939 -10.0712 -12.3269
LeftFoot  1.21828 0.00309358 -0.29098
LeftToes  -32.187 1.18758e-006 1.19596e-007
340
root  -43.8225 33.0079 40.6825 -151.782 -72.9144 169.504
RightUpLeg  -41.6764 -5.41072 4.73227
RightLeg  44.9886 4.53338 3.94104
RightFoot  -11.5303 -0.161849 -1.22549
RightToes  -52.8833 -0.328684 -0.375766
Spine  15.0475 -4.05031 1.23158
Spine1  28.578 -6.3718 -3.71935
HEad  10.326 26.9869 -14.5051
LeftShoulder1  0 -2.42657e-020 -4.95415e-022
LeftArm  -34.0176 2.28379 -75.2034
LeftForeArm  28.6611 -35.0826 -7.10984
LeftHand  0.0838196 -8.57363 -1.48932
RightShoulder  0 2.42657e-020 1.07489e-018
RightArm  -36.468 10.0686 83.9823
RightForeArm  72.5023 72.5902 34.4321
RightHand  -4.84503 23.1408 -22.9867
LeftUpLeg  -40.0084 0.411141 0.172741
LeftLeg  62.3124 -12.9991 -20.2619
LeftFoot  9.63147 0.339602 -4.02929
LeftToes  -49.8977 1.18758e-006 1.19596e-007
341
root  -45.0385 32.7395 41.6993 -153.211 -65.7615 169.515
RightUpLeg  -40.5649 -2.8919 4.81348
RightLeg  44.586 3.20259 2.73934
RightFoot  -8.54702 -0.0725249 -0.593029
RightToes  -52.8357 -0.328252 -0.375588
Spine  15.0093 -2.8166 -0.189649
Spine1  28.0213 -2.96646 -7.55192
HEad  10.742 28.4795 -14.5657
LeftShoulder1  0 -2.42657e-020 -4.95415e-022
LeftArm  -36.4215 4.5794 -73.6932
LeftForeArm  31.4594 -32.6471 -6.47903
LeftHand  0.218952 -9.98208 -2.87868
RightShoulder  0 2.42657e-020 1.07489e-018
RightArm  -28.8202 13.8472 82.9174
RightForeArm  88.1885 75.2327 42.2414
RightHand  -5.47266 23.1345 -25.9243
LeftUpLeg  -41.4046 1.43458 1.65832
LeftLeg  67.6928 -5.89357 -11.9082
LeftFoot  10.1157 0.178155 -2.01271
LeftToes  -38.1662 1.18758e-006 1.19596e-007
